HIERARCHY
ROOT pelvis
{
  OFFSET 0 100 0
  CHANNELS 6 Xposition Yposition Zposition Zrotation Xrotation Yrotation
  JOINT pelvis_right_femur
  {
    OFFSET -10.78128 -3.44521 -0.5502486
    CHANNELS 3 Zrotation Xrotation Yrotation
    JOINT right_femur_tibia
    {
      OFFSET -0.8047443 -44.0398 -0.1307829
      CHANNELS 3 Zrotation Xrotation Yrotation
      JOINT right_tibia_foot
      {
        OFFSET 3.006224 -47.83518 -5
        CHANNELS 3 Zrotation Xrotation Yrotation
        End Site
        {
          OFFSET 0 -5 15
        }
      }
    }
  }
  JOINT pelvis_left_femur
  {
    OFFSET 10.78128 -3.44521 -0.5502486
    CHANNELS 3 Zrotation Xrotation Yrotation
    JOINT left_femur_tibia
    {
      OFFSET 0.8047443 -44.0398 -0.1307829
      CHANNELS 3 Zrotation Xrotation Yrotation
      JOINT left_tibia_foot
      {
        OFFSET -4.370144 -48.10324 -4.275266
        CHANNELS 3 Zrotation Xrotation Yrotation
        End Site
        {
          OFFSET 0 -5 15
        }
      }
    }
  }
  JOINT pelvis_spine1
  {
    OFFSET 0 6.468898 -3.129235
    CHANNELS 3 Zrotation Xrotation Yrotation
    JOINT spine1
    {
      OFFSET 0 23.15396 4.99043
      CHANNELS 3 Zrotation Xrotation Yrotation
      JOINT spine2
      {
        OFFSET 0 20.79997 -5.064912
        CHANNELS 3 Zrotation Xrotation Yrotation
        JOINT neck
        {
          OFFSET 0 14.38658 9.616178
          CHANNELS 3 Zrotation Xrotation Yrotation
          End Site
          {
            OFFSET 0 20 0
          }
        }
      }
      JOINT right_manubrium
      {
        OFFSET -5.722621 16.35077 3.967754
        CHANNELS 3 Zrotation Xrotation Yrotation
        JOINT right_clavicle
        {
          OFFSET -13.16364 1.694482 -4.693211
          CHANNELS 3 Zrotation Xrotation Yrotation
          JOINT right_humerus
          {
            OFFSET -28.5034 -0.3100689 -2.792744
            CHANNELS 3 Zrotation Xrotation Yrotation
            JOINT right_radius
            {
              OFFSET -25.15693 0.02248979 -1.271978
              CHANNELS 3 Zrotation Xrotation Yrotation
              End Site
              {
                OFFSET -15 0 0
              }
            }
          }
        }
      }
      JOINT left_manubrium
      {
        OFFSET 5.722621 16.35077 3.967754
        CHANNELS 3 Zrotation Xrotation Yrotation
        JOINT left_clavicle
        {
          OFFSET 13.16364 1.694482 -4.693211
          CHANNELS 3 Zrotation Xrotation Yrotation
          JOINT left_humerus
          {
            OFFSET 29.39168 -1.063119 -2.237045
            CHANNELS 3 Zrotation Xrotation Yrotation
            JOINT left_radius
            {
              OFFSET 24.59957 -0.9528479 0.9047498
              CHANNELS 3 Zrotation Xrotation Yrotation
              End Site
              {
                OFFSET 15 -0 -0
              }
            }
          }
        }
      }
    }
  }
}
MOTION
Frames: 11
Frame Time: 0.0416666666667
-284.3043 106.4603 3069.02 -2.182851 -6.589594 -21.89132 5.01075 10.43835 3.542675 -0 10.25867 -0 -4.429814 -12.42721 -2.187239 1.826337 -21.82396 -3.03418 -0 36.56808 -0 -4.265353 -5.713414 18.36343 -0.7832841 -2.670005 6.605287 -0.1119414 11.43616 -2.403866 0.8379459 22.21197 4.097846 2.527768 -14.72998 4.441481 1.243492 -27.01564 12.28109 80.05114 20.81158 -0.1179812 -0 0 28.61608 -25.46744 13.53798 18.27675 2.857671 -18.11843 -6.070195 -97.14568 10.94414 35.23921 -0 0 2.857642 7.294448 16.06868 2.387003
-285.9157 105.5418 3074.387 -2.42726 -5.679515 -22.62545 5.143115 13.29723 3.145941 -0 10.31754 -0 -4.246847 -14.6939 -1.439263 3.093552 -24.7236 -2.376224 -0 26.61459 -0 -3.834683 -5.405401 18.66373 -0.8131352 -2.647772 6.626035 -0.1428604 11.2789 -2.3244 0.867992 22.25318 4.107286 2.474924 -14.75889 4.527932 1.18857 -27.0138 12.21211 79.9292 20.9628 0.1474823 -0 0 28.67768 -25.47946 13.42848 18.39377 2.867994 -17.91121 -5.904088 -97.20616 11.11913 35.28213 -0 0 2.899899 7.157754 16.06591 2.57628
-287.473 104.3898 3080.086 -2.478491 -4.891653 -23.35645 4.712309 15.86387 2.952449 -0 11.39696 -0 -3.60541 -16.24012 -0.7845299 3.394718 -26.34393 -2.469748 -0 19.10166 -0 -3.702876 -5.220915 18.89979 -0.8477028 -2.604201 6.627507 -0.1920131 11.12955 -2.232421 0.9101961 22.32511 4.126054 2.442415 -14.79697 4.622772 1.132398 -26.94417 12.14036 79.83986 21.12012 0.3734415 -0 0 28.62932 -25.51924 13.29173 18.48388 2.902806 -17.71235 -5.746572 -97.26073 11.32754 35.22104 -0 0 2.977402 7.059283 16.09396 2.710752
-289.0621 103.2597 3086.251 -2.307909 -4.544797 -24.0417 3.645398 17.96399 2.97258 -0 14.21857 -0 -2.848293 -15.99733 -0.2731872 2.61164 -26.605 -3.336264 -0 15.09441 -0 -3.730839 -5.33607 19.27643 -0.884301 -2.543537 6.610942 -0.2537469 10.99839 -2.136071 0.9603647 22.42047 4.152104 2.430893 -14.84069 4.718508 1.080162 -26.81632 12.07165 79.78764 21.27203 0.5449908 -0 0 28.48101 -25.57834 13.13879 18.54088 2.957075 -17.53597 -5.608528 -97.30546 11.553 35.06808 -0 0 3.081515 7.002809 16.14732 2.786127
-290.7603 102.4223 3092.917 -1.952904 -4.735108 -24.58522 2.159967 19.18701 3.109511 -0 19.27537 -0 -2.394003 -13.13321 0.01838545 0.985804 -25.50985 -4.702645 -0 14.50599 -0 -3.587829 -5.76355 19.74262 -0.9202692 -2.471175 6.578447 -0.3219781 10.8925 -2.042974 1.014197 22.53081 4.183127 2.438883 -14.88641 4.808951 1.036081 -26.64371 12.01062 79.77342 21.40902 0.65369 -0 0 28.25013 -25.64821 12.98189 18.56293 3.024895 -17.39227 -5.497507 -97.33727 11.77961 34.84152 -0 0 3.201528 6.988729 16.22003 2.803043
-292.5793 102.1082 3099.964 -1.47881 -5.319949 -24.85013 0.6458212 19.02988 3.251693 -0 26.54305 -0 -2.365443 -7.725659 0.02409279 -1.026385 -23.19648 -6.14296 -0 16.21291 -0 -2.974326 -6.401147 20.0341 -0.9532347 -2.392882 6.532714 -0.3911368 10.81586 -1.959372 1.067813 22.64771 4.21685 2.463531 -14.93087 4.889493 1.002906 -26.44147 11.9605 79.79504 21.52404 0.6973366 -0 0 27.95831 -25.7218 12.83276 18.552 3.100437 -17.28739 -5.417744 -97.35429 11.99333 34.56248 -0 0 3.32663 7.014746 16.30645 2.765718
-294.4392 102.429 3107.114 -1.017346 -6.033907 -24.72297 -0.4759671 17.10933 3.32326 -0 35.28527 -0 -2.541278 -1.160936 -0.3048565 -2.931073 -19.90116 -7.306315 -0 18.49637 -0 -1.906013 -7.155049 19.90168 -0.9812535 -2.314229 6.476848 -0.456652 10.76993 -1.889799 1.118003 22.7634 4.251166 2.501298 -14.97143 4.95695 0.9818521 -26.22484 11.92313 79.84822 21.61227 0.6788508 -0 0 27.62872 -25.79424 12.70153 18.51276 3.178466 -17.22384 -5.370746 -97.35598 12.18248 34.2526 -0 0 3.447245 7.076564 16.40154 2.68074
-296.2134 103.3152 3114.04 -0.7822216 -6.69413 -24.18636 -0.9327808 13.35852 3.268768 -0 44.01656 -0 -2.674114 4.422632 -0.9962353 -4.355403 -15.83492 -8.068236 -0 19.86584 -0 -0.7529142 -8.026363 19.36489 -1.002859 -2.24022 6.414244 -0.5150751 10.75438 -1.837153 1.162255 22.87119 4.284196 2.548523 -15.00609 5.009192 0.9728614 -26.00799 11.89932 79.92742 21.67076 0.6047308 -0 0 27.28413 -25.86266 12.59608 18.45132 3.254536 -17.2015 -5.356111 -97.34305 12.33783 33.93243 -0 0 3.55573 7.168579 16.50073 2.556029
-297.8174 104.5276 3120.513 -0.92784 -7.276392 -23.33384 -0.75311 8.074105 3.041461 -0 50.79458 -0 -2.807557 7.511261 -1.947818 -5.148607 -11.16327 -8.490976 -0 19.72897 -0 0.09752011 -9.070518 18.69495 -1.01708 -2.174999 6.348376 -0.5640441 10.76783 -1.802927 1.198732 22.96566 4.314337 2.601865 -15.03344 5.044833 0.9750164 -25.80318 11.88919 80.02661 21.69803 0.4834282 -0 0 26.94509 -25.92575 12.52176 18.37404 3.325076 -17.2185 -5.37226 -97.31717 12.45257 33.62014 -0 0 3.64668 7.284606 16.59987 2.399868
-299.2559 105.741 3126.483 -1.374257 -7.778762 -22.31885 -0.2420058 1.823695 2.634158 -0 53.88887 -0 -3.183546 8.042663 -2.925993 -5.388754 -6.137378 -8.685457 -0 18.3523 -0 0.5416779 -10.33912 18.10002 -1.023441 -2.121628 6.282544 -0.6021731 10.80827 -1.787472 1.226222 23.04286 4.340324 2.658584 -15.05259 5.063053 0.9869607 -25.62002 11.89233 80.13991 21.69395 0.3239487 -0 0 26.62851 -25.98313 12.48133 18.28662 3.387439 -17.27196 -5.416948 -97.28054 12.52238 33.33041 -0 0 3.716895 7.418509 16.69523 2.220161
-300.6016 106.6471 3132.046 -1.853395 -8.108869 -21.28651 0.2398545 -4.693294 2.06681 -0 52.46426 -0 -3.878543 6.884433 -3.761925 -5.289091 -1.122078 -8.737429 -0 16.36867 -0 0.6405511 -11.89733 17.52165 -1.021927 -2.08204 6.219704 -0.6288497 10.87332 -1.790298 1.244054 23.10029 4.361252 2.716605 -15.06309 5.063496 1.007235 -25.46524 11.90805 80.26192 21.65957 0.1349691 -0 0 26.34712 -26.0348 12.47516 18.19357 3.439826 -17.35842 -5.487515 -97.23554 12.54527 33.07408 -0 0 3.764985 7.564514 16.78346 2.024143
